<?xml version="1.0" encoding="UTF-8"?>
<svg version="1.1" xmlns="http://www.w3.org/2000/svg" width="512" height="512">
<path d="M0 0 C4.37144389 1.51396337 6.3351683 4.85358678 8.75 8.5625 C9.18320557 9.22290283 9.61641113 9.88330566 10.06274414 10.5637207 C22.42140692 29.90938916 28.50193564 50.37824656 24.30859375 73.43359375 C17.52113171 101.17982981 -4.52725588 113.71657254 -27.09326172 127.91381836 C-34.41933049 132.55314535 -41.3586291 137.41636658 -48 143 C-48.99966797 143.82951172 -48.99966797 143.82951172 -50.01953125 144.67578125 C-64.55996904 157.90331269 -73.06851969 180.00046749 -74.453125 199.203125 C-75.19649791 216.91538494 -72.04317841 234.28606458 -69.02793884 251.67271423 C-65.31210754 273.35881778 -64.47504199 298.55016302 -70 320 C-70.30599121 321.2384668 -70.30599121 321.2384668 -70.61816406 322.50195312 C-80.31109559 361.07615224 -101.88528963 392.7012843 -136.1875 413.5625 C-165.69356056 431.02349651 -200.91108239 440.66386286 -235.11865234 442.1340332 C-241.75377949 442.46089944 -245.80762181 443.24572671 -250.875 447.5625 C-252.06265156 448.48143572 -253.25416259 449.39540214 -254.44921875 450.3046875 C-255.04009277 450.76069336 -255.6309668 451.21669922 -256.23974609 451.68652344 C-282.25384967 471.0978795 -317.50096932 475.58452159 -348.9375 471.3046875 C-359.37566201 469.55132621 -369.32850015 466.25018989 -379 462 C-379.65419922 461.71672852 -380.30839844 461.43345703 -380.98242188 461.14160156 C-411.07749484 447.85572789 -434.78418589 422.27843714 -446.87109375 391.80371094 C-448.83046327 386.60506117 -450.486645 381.34399649 -452 376 C-452.34160156 374.82179688 -452.68320312 373.64359375 -453.03515625 372.4296875 C-460.70836765 339.95237413 -453.77081932 304.5908432 -437.015625 276.22265625 C-435 273 -435 273 -433.38793945 271.14868164 C-431.59637132 268.37513878 -431.68272171 266.68099145 -431.77734375 263.3984375 C-431.79772705 262.28194824 -431.81811035 261.16545898 -431.83911133 260.01513672 C-431.87157959 258.8138916 -431.90404785 257.61264648 -431.9375 256.375 C-432.6278668 199.14469991 -417.4184724 148.46940949 -377 107 C-354.677061 84.87696792 -314.03065771 56.71501566 -281.2109375 55.93359375 C-280.11652344 55.96646484 -280.11652344 55.96646484 -279 56 C-281.47309408 58.66206805 -284.22269305 60.65916294 -287.1875 62.75 C-300.66204089 72.54161775 -311.5516623 83.96773619 -314.5234375 101 C-315.93323677 113.28091812 -313.01971862 125.17712888 -305.3125 134.9375 C-304.40951172 136.00291016 -304.40951172 136.00291016 -303.48828125 137.08984375 C-302 139 -302 139 -301 142 C-299.69284727 142.71664075 -298.35364541 143.37560722 -297 144 C-295.489558 145.11094103 -293.99040747 146.23732229 -292.5 147.375 C-282.08751308 154.64552658 -271.40023951 156.18621621 -259 155 C-245.17259033 152.4092769 -233.04465808 144.79333559 -225.05859375 133.17578125 C-218.9734741 123.25411434 -216.70461785 114.1507408 -216 102.625 C-214.77925083 86.70845481 -211.63322009 70.15761856 -199 59 C-186.14027825 48.70162392 -172.66714575 43.89733896 -156 45 C-142.06610697 46.67073058 -130.85501118 53.10629452 -119 60.125 C-99.48644528 71.37347039 -77.98958416 75.95998256 -55.875 70.4375 C-34.19110259 63.59645264 -18.59556531 47.71890471 -8 28 C-3.5827477 18.9777321 -0.98270922 10.04735465 0 0 Z " fill="#FED83F" transform="translate(471,24)"/>
<path d="M0 0 C-4.31061263 5.21811003 -8.91432956 9.82049682 -13.92578125 14.375 C-16.51084738 17.64649612 -16.90428474 19.86510073 -17 24 C-15.10350449 27.14658666 -15.10350449 27.14658666 -12 29 C-8.68630509 29.29455066 -6.88790938 28.63476891 -4.19140625 26.70703125 C-2.03849366 24.88333669 -0.01813255 22.97218557 2 21 C2.89074219 20.13632812 3.78148437 19.27265625 4.69921875 18.3828125 C9.39430199 14.10916786 9.39430199 14.10916786 13 9 C16.2826932 10.49076434 18.93077441 12.38620321 21.75 14.625 C22.94882812 15.57246094 22.94882812 15.57246094 24.171875 16.5390625 C24.77515625 17.02117187 25.3784375 17.50328125 26 18 C24.67662486 20.93030481 23.24507483 23.00421501 20.97401237 25.27208328 C20.03797261 26.21409619 20.03797261 26.21409619 19.08302295 27.17513967 C18.39625984 27.8560771 17.70949672 28.53701453 17.00192261 29.23858643 C16.27334144 29.96887645 15.54476027 30.69916646 14.79410088 31.45158648 C12.3451676 33.90382084 9.88914167 36.34882644 7.43310547 38.79394531 C5.67870871 40.54777809 3.9247519 42.30205106 2.17120361 44.05673218 C-1.60834414 47.83673575 -5.39093974 51.6136489 -9.17633438 55.38779449 C-14.64937219 60.84457867 -20.11687945 66.30687669 -25.58305238 71.77053651 C-34.45168864 80.63479545 -43.32478209 89.4945788 -52.20068359 98.3515625 C-60.82281778 106.95533884 -69.44284903 115.56121311 -78.06005859 124.16992188 C-78.59121836 124.70055619 -79.12237813 125.23119051 -79.66963364 125.77790466 C-82.33429144 128.43995239 -84.99890793 131.10204146 -87.66350389 133.7641511 C-109.76926823 155.8491818 -131.88234193 177.9268803 -154 200 C-175.91874587 178.29856278 -186.18866744 147.48444279 -186.493927 117.10336304 C-186.5873448 84.74841531 -177.34320401 55.49884063 -155.30712891 31.44677734 C-153.65869404 29.62223027 -152.11850701 27.71600237 -150.5625 25.8125 C-113.213506 -16.41989757 -49.14937015 -23.2812806 0 0 Z " fill="#EF1D64" transform="translate(202,253)"/>
<path d="M0 0 C3.56673642 1.64903658 5.35780708 3.35130163 7.75 6.5 C8.36359375 7.2940625 8.9771875 8.088125 9.609375 8.90625 C11 11 11 11 11 13 C9.63671875 14.33984375 9.63671875 14.33984375 7.6875 15.9375 C4.06803709 19.04452999 0.51546507 22.20890151 -2.9375 25.5 C-3.87464844 26.3765625 -4.81179687 27.253125 -5.77734375 28.15625 C-8.44109243 31.56435025 -8.84767928 33.71536545 -9 38 C-8.65340705 40.32158065 -8.65340705 40.32158065 -8 42 C-4.93156859 42.84523921 -2.18296859 43.26358959 1 43 C4.1899395 41.18149282 6.50167559 38.66456273 9 36 C10.62105295 34.35027891 12.24606842 32.70444222 13.875 31.0625 C14.61492187 30.29035156 15.35484375 29.51820313 16.1171875 28.72265625 C18 27 18 27 20 27 C24.16474729 35.59354195 27.56460037 44.09131452 29.875 53.375 C30.07762451 54.18163086 30.28024902 54.98826172 30.48901367 55.81933594 C34.81606481 74.1135927 34.88373163 94.86688535 30 113 C29.7834375 113.93070312 29.566875 114.86140625 29.34375 115.8203125 C23.14648791 141.12579937 8.99464729 161.79606567 -9.54711914 179.59106445 C-10.92431618 180.92660539 -12.26799017 182.29646301 -13.609375 183.66796875 C-36.04725322 205.55589897 -68.99670355 212.7763339 -99.19604492 212.47290039 C-116.14784688 212.1697681 -131.50953492 208.80736382 -147 202 C-147.98129883 201.57509277 -147.98129883 201.57509277 -148.98242188 201.14160156 C-157.26959903 197.48311604 -164.71373107 193.07576093 -172 187.6875 C-172.70125 187.17171387 -173.4025 186.65592773 -174.125 186.12451172 C-175.81324494 184.82812001 -177.41596382 183.42184099 -179 182 C-179 179 -179 179 -177.85224676 177.47965127 C-177.03660749 176.66572074 -177.03660749 176.66572074 -176.20449066 175.83534718 C-175.58096285 175.20584622 -174.95743505 174.57634527 -174.31501245 173.92776853 C-173.61853271 173.24002731 -172.92205297 172.55228609 -172.20446777 171.84370422 C-171.4735119 171.11018508 -170.74255603 170.37666593 -169.98944998 169.62091893 C-167.52284046 167.14934322 -165.04561431 164.68868563 -162.56835938 162.2277832 C-160.80419096 160.46446044 -159.04068176 158.70047793 -157.27778625 156.93588257 C-153.47294201 153.13035378 -149.66353108 149.32948667 -145.84992981 145.53273964 C-140.33607814 140.04324069 -134.83050214 134.54550342 -129.32692856 129.04570236 C-120.39812435 120.1234685 -111.46263736 111.20795848 -102.52294922 102.29663086 C-93.83747528 93.63868241 -85.15514918 84.97759727 -76.47705078 76.31225586 C-75.94237857 75.77837182 -75.40770636 75.24448778 -74.85683197 74.69442544 C-72.17463168 72.01614019 -69.4924933 69.33779295 -66.8103857 66.65941489 C-44.54984698 44.42999022 -22.27835368 22.21157115 0 0 Z " fill="#EF1D64" transform="translate(239,284)"/>
<path d="M0 0 C4.68785138 1.51537521 6.59816661 5.3797875 9.125 9.3125 C9.56714844 9.97701172 10.00929688 10.64152344 10.46484375 11.32617188 C16.26298302 20.18103411 16.26298302 20.18103411 15.53125 25.2421875 C7.80911296 52.44517025 -4.38097171 71.7277305 -29.40625 85.93359375 C-50.48711851 96.97256206 -72.53761177 100.64359767 -96 96 C-97.175625 95.78988281 -98.35125 95.57976562 -99.5625 95.36328125 C-115.4728558 92.02145447 -130.35548998 84.34047233 -143.8203125 75.37109375 C-151.88768032 70.29645915 -160.66922332 70.07207746 -170 71 C-177.94870635 73.25031869 -182.62328287 79.07667348 -186.88671875 85.83984375 C-189.98646634 91.8544417 -190.22181506 97.13846298 -190.3125 103.75 C-190.94626353 123.14926439 -197.05563464 140.28430044 -210 155 C-210.64324219 155.73734375 -211.28648437 156.4746875 -211.94921875 157.234375 C-225.70420989 171.98094591 -245.18131752 180.61031246 -265.27734375 181.40478516 C-283.26323566 181.67717547 -300.62520549 175.05149329 -314 163 C-314.89460938 162.19820312 -315.78921875 161.39640625 -316.7109375 160.5703125 C-331.11569842 146.95485355 -338.81004908 129.59628492 -341 110 C-370.24741952 130.96147268 -390.50335827 160.26815067 -400 195 C-400.26425781 195.89074219 -400.52851563 196.78148437 -400.80078125 197.69921875 C-402.64310638 204.3221414 -403.67586154 211.01570338 -404.625 217.8125 C-404.83044434 219.24795166 -404.83044434 219.24795166 -405.04003906 220.71240234 C-405.60938608 224.94214621 -406.09234286 229.02623889 -405.91796875 233.296875 C-405.75658202 239.0589789 -405.82765707 243.10360316 -409.85546875 247.41796875 C-412.83718843 250.26580856 -416.02368998 252.84430347 -419.22021484 255.44482422 C-422.78759392 258.56199908 -425.53855411 262.30966069 -428.42578125 266.05078125 C-429.20501953 267.01564453 -429.20501953 267.01564453 -430 268 C-430.33 268 -430.66 268 -431 268 C-431.17311879 265.93803154 -431.33802951 263.87537411 -431.5 261.8125 C-431.5928125 260.66394531 -431.685625 259.51539063 -431.78125 258.33203125 C-434.97916085 206.18885016 -419.85459052 155.3645549 -385.37890625 116.0078125 C-360.114484 87.62884616 -321.91461661 62.98427148 -284 56 C-282.33380554 55.9603287 -280.66591541 55.94996367 -279 56 C-281.47309408 58.66206805 -284.22269305 60.65916294 -287.1875 62.75 C-300.66204089 72.54161775 -311.5516623 83.96773619 -314.5234375 101 C-315.93323677 113.28091812 -313.01971862 125.17712888 -305.3125 134.9375 C-304.40951172 136.00291016 -304.40951172 136.00291016 -303.48828125 137.08984375 C-302 139 -302 139 -301 142 C-299.69284727 142.71664075 -298.35364541 143.37560722 -297 144 C-295.489558 145.11094103 -293.99040747 146.23732229 -292.5 147.375 C-282.08751308 154.64552658 -271.40023951 156.18621621 -259 155 C-245.17259033 152.4092769 -233.04465808 144.79333559 -225.05859375 133.17578125 C-218.9734741 123.25411434 -216.70461785 114.1507408 -216 102.625 C-214.77925083 86.70845481 -211.63322009 70.15761856 -199 59 C-186.14027825 48.70162392 -172.66714575 43.89733896 -156 45 C-142.06610697 46.67073058 -130.85501118 53.10629452 -119 60.125 C-99.48644528 71.37347039 -77.98958416 75.95998256 -55.875 70.4375 C-34.19110259 63.59645264 -18.59556531 47.71890471 -8 28 C-3.5827477 18.9777321 -0.98270922 10.04735465 0 0 Z " fill="#FEF474" transform="translate(471,24)"/>
<path d="M0 0 C4.16474729 8.59354195 7.56460037 17.09131452 9.875 26.375 C10.07762451 27.18163086 10.28024902 27.98826172 10.48901367 28.81933594 C14.81606481 47.1135927 14.88373163 67.86688535 10 86 C9.7834375 86.93070312 9.566875 87.86140625 9.34375 88.8203125 C3.14648791 114.12579937 -11.00535271 134.79606567 -29.54711914 152.59106445 C-30.92431618 153.92660539 -32.26799017 155.29646301 -33.609375 156.66796875 C-56.04725322 178.55589897 -88.99670355 185.7763339 -119.19604492 185.47290039 C-139.17070469 185.11571333 -155.81168713 179.84822207 -174 172 C-172 170 -170 168 -168 166 C-166.12196829 166.06516829 -164.24629172 166.20319406 -162.375 166.375 C-161.35148437 166.46523438 -160.32796875 166.55546875 -159.2734375 166.6484375 C-157.09733388 166.88214791 -154.92654295 167.17242728 -152.765625 167.51953125 C-119.97199432 171.70378081 -87.01799798 161.74577932 -60.92041016 141.83618164 C-40.6801321 125.85115872 -26.57166783 105.32841016 -18 81 C-17.73703125 80.26394531 -17.4740625 79.52789062 -17.203125 78.76953125 C-10.9230881 59.64105152 -10.99822573 40.50842273 -13.5625 20.7578125 C-13.7790625 18.89769531 -13.7790625 18.89769531 -14 17 C-14.14179688 16.13761719 -14.28359375 15.27523438 -14.4296875 14.38671875 C-13.72249258 10.45857243 -10.95265587 8.35015536 -8.125 5.6875 C-7.56941406 5.13771484 -7.01382813 4.58792969 -6.44140625 4.02148438 C-2.29503106 0 -2.29503106 0 0 0 Z " fill="#D7184A" transform="translate(259,311)"/>
<path d="M0 0 C-0.6005799 4.61222039 -1.45891756 9.04687521 -2.5625 13.5625 C-6.0587245 29.80358227 -2.96135811 43.02685936 3.5 57.96875 C7.38196243 67.84661479 8.49978574 77.31437557 8.375 87.875 C8.36557373 89.10935791 8.35614746 90.34371582 8.34643555 91.61547852 C8.20539673 100.11545527 7.67482832 107.87844465 5 116 C4.6596875 117.06347656 4.319375 118.12695312 3.96875 119.22265625 C-0.6550001 132.32848847 -7.71895795 143.69307421 -17 154 C-18.01126953 155.13501953 -18.01126953 155.13501953 -19.04296875 156.29296875 C-30.27046908 168.1945404 -45.48146286 178.60341529 -61 184 C-61.99 184 -62.98 184 -64 184 C-62.54189138 180.74503025 -60.68972832 178.32705338 -58.375 175.625 C-41.15189269 154.28332356 -34.11498271 127.15456213 -36.81298828 100.0456543 C-37.88677919 91.1503301 -40.2301022 82.61755882 -42.66015625 74.01171875 C-46.74296464 59.30512265 -45.98857003 44.03979403 -39.6796875 30.078125 C-38.25751889 27.57572995 -36.730313 25.29901727 -35 23 C-34.43667969 22.24460938 -33.87335938 21.48921875 -33.29296875 20.7109375 C-26.14415143 11.95175501 -11.84772158 0 0 0 Z " fill="#FFD83E" transform="translate(480,208)"/>
<path d="M0 0 C4.75995491 1.96192637 7.8551075 6.93255016 10.95307004 10.80500335 C-48.44692996 70.20500335 -107.84692996 129.60500335 -169.04692996 190.80500335 C-172.71464841 188.97114412 -174.51527992 187.55437505 -177.29692996 184.68000335 C-178.00333621 183.95555022 -178.70974246 183.2310971 -179.43755496 182.48469085 C-180.23419558 181.65324553 -180.23419558 181.65324553 -181.04692996 180.80500335 C-179.7274347 177.88800882 -178.30350726 175.80974806 -176.04773295 173.54574412 C-175.42965663 172.92060221 -174.81158031 172.2954603 -174.17477441 171.6513747 C-173.49463072 170.9736461 -172.81448704 170.29591749 -172.11373293 169.59765166 C-171.0312199 168.50728361 -171.0312199 168.50728361 -169.92683792 167.39488792 C-167.50110203 164.95411901 -165.06823848 162.5205826 -162.63530886 160.08698577 C-160.89728853 158.34134644 -159.15967307 156.59530394 -157.4224335 154.84888762 C-152.69810612 150.10258884 -147.9672127 145.36289841 -143.23441899 140.62504667 C-140.28064391 137.66801479 -137.32850477 134.70935349 -134.37671435 131.75034064 C-126.20648219 123.56054857 -118.03467771 115.37233487 -109.85611308 107.19086283 C-109.33292237 106.66748456 -108.80973167 106.14410629 -108.27068671 105.60486807 C-107.21003362 104.54384873 -106.14937925 103.48283067 -105.08872361 102.42181387 C-104.29894884 101.63176488 -104.29894884 101.63176488 -103.49321902 100.8257553 C-102.96606045 100.29841618 -102.43890188 99.77107706 -101.89576881 99.22775797 C-93.34350316 90.67194639 -84.80305293 82.10444492 -76.26771291 73.5317513 C-67.50812021 64.73413013 -58.73925309 55.9458458 -49.96077633 47.16706657 C-45.03057867 42.23628331 -40.10444265 37.30158838 -35.188398 32.35669059 C-30.56894419 27.71024926 -25.93685874 23.07668587 -21.29582942 18.45177764 C-19.5902615 16.74803531 -17.88899838 15.03997159 -16.19228327 13.32741278 C-13.88419616 10.99908454 -11.5614185 8.68651207 -9.23409426 6.37743682 C-8.2205709 5.3441135 -8.2205709 5.3441135 -7.18657231 4.28991497 C-6.25163459 3.37176021 -6.25163459 3.37176021 -5.29780924 2.43505687 C-4.76272828 1.89916145 -4.22764732 1.36326603 -3.67635179 0.81113136 C-2.04692996 -0.19499665 -2.04692996 -0.19499665 0 0 Z " fill="#F0F7FE" transform="translate(229.04692995548248,273.19499665498734)"/>
<path d="M0 0 C0 0.66 0 1.32 0 2 C-1.12792969 2.20753906 -2.25585938 2.41507813 -3.41796875 2.62890625 C-22.0190441 6.20549757 -39.39297184 11.84004896 -56 21 C-57.63388672 21.88171875 -57.63388672 21.88171875 -59.30078125 22.78125 C-66.09646857 26.58061775 -72.09915496 30.93266116 -78 36 C-78.83402344 36.69996094 -79.66804688 37.39992187 -80.52734375 38.12109375 C-89.02898546 45.46997048 -95.92796419 53.85147452 -101.80859375 63.41796875 C-102.20175781 63.94003906 -102.59492187 64.46210937 -103 65 C-103.66 65 -104.32 65 -105 65 C-105.6652034 41.16866175 -102.43126718 19.9192342 -85.375 1.8125 C-61.838933 -20.61808507 -24.72160853 -22.1360458 0 0 Z " fill="#FFD83E" transform="translate(160,47)"/>
<path d="M0 0 C4.8846525 2.26787438 7.73212562 5.1153475 10 10 C10.75381535 15.5997712 10.77303575 20.33499991 8.375 25.5 C3.80134327 30.3143755 0.6912538 32.25156236 -6 32.5 C-12.6912538 32.25156236 -15.80134327 30.3143755 -20.375 25.5 C-22.77303575 20.33499991 -22.75381535 15.5997712 -22 10 C-17.52212837 0.3553534 -9.85292056 -1.32635469 0 0 Z " fill="#FFD83E" transform="translate(214,112)"/>
<path d="M0 0 C3.89373193 0.95635521 5.33111278 1.57254692 7.5625 4.875 C8.25 7.625 8.25 7.625 7.5625 10.875 C5.59166857 13.8863753 3.09247497 16.32864978 0.5625 18.875 C-0.5339607 19.99729176 -1.63030624 21.11969604 -2.7265625 22.2421875 C-13.00543518 32.68405802 -13.00543518 32.68405802 -17.25 33.25 C-20.4375 32.875 -20.4375 32.875 -23.3125 30.75 C-25.84852595 27.31890607 -25.93937556 26.04684059 -25.4375 21.875 C-23.8203125 19.453125 -23.8203125 19.453125 -21.5625 17.125 C-20.7478125 16.27421875 -19.933125 15.4234375 -19.09375 14.546875 C-18.2171875 13.66515625 -17.340625 12.7834375 -16.4375 11.875 C-15.5403125 10.95203125 -14.643125 10.0290625 -13.71875 9.078125 C-4.63251522 -0.1684551 -4.63251522 -0.1684551 0 0 Z " fill="#F0F1FA" transform="translate(175.4375,374.125)"/>
<path d="M0 0 C2.9375 2.0625 2.9375 2.0625 5 5 C5.35269696 9.67323469 4.05480678 12.28943112 1.125 15.75 C-0.23252967 17.18341642 -1.61008856 18.59796019 -3 20 C-3.91394531 20.95132812 -4.82789063 21.90265625 -5.76953125 22.8828125 C-15.1983366 32.57975049 -15.1983366 32.57975049 -20.5 33.375 C-23 33 -23 33 -25.25 31.4375 C-27.68568781 28.04493484 -28.21003442 26.20068836 -28 22 C-26.15070187 18.87887974 -23.58189325 16.52424332 -21 14 C-19.90046363 12.88075015 -18.80295716 11.75950406 -17.70703125 10.63671875 C-6.50470472 -0.76525938 -6.50470472 -0.76525938 0 0 Z " fill="#F0F1FA" transform="translate(133,329)"/>
<path d="M0 0 C1.9375 1.0625 1.9375 1.0625 3 3 C3.71121821 6.37828651 3.93153116 7.78594512 3 11 C0.39081963 14.73082803 -2.75358372 17.82213549 -6 21 C-6.82371094 21.84691406 -7.64742187 22.69382812 -8.49609375 23.56640625 C-16.5897839 31.84615824 -16.5897839 31.84615824 -21.4375 32.375 C-25 32 -25 32 -27.4375 30.5 C-29.16390101 27.73775838 -29.73756291 25.61225183 -29.67114258 22.34912109 C-28.12997538 16.95475558 -23.10146053 13.2758523 -19.125 9.5625 C-18.18785156 8.65306641 -17.25070313 7.74363281 -16.28515625 6.80664062 C-7.56579727 -1.59279943 -7.56579727 -1.59279943 0 0 Z " fill="#F0F2FB" transform="translate(174,290)"/>
<path d="M0 0 C2.4375 1.5 2.4375 1.5 4 4 C4.65427111 7.31201646 4.86933997 8.8267939 4 12 C1.26325624 15.94438867 -2.05589453 19.17198797 -5.5 22.5 C-6.386875 23.4178125 -7.27375 24.335625 -8.1875 25.28125 C-15.57766511 32.584472 -15.57766511 32.584472 -20.5 32.69140625 C-24 32 -24 32 -26.5 30.4375 C-28.68071663 26.89383548 -28.75331723 25.10900306 -28 21 C-26.04274503 17.96110413 -23.55951912 15.53756785 -21 13 C-20.06266902 12.0401677 -19.12653747 11.07916308 -18.19140625 10.1171875 C-7.49945722 -0.78941655 -7.49945722 -0.78941655 0 0 Z " fill="#F0F2FB" transform="translate(218,335)"/>
<path d="M0 0 C3.5 0.69140625 3.5 0.69140625 6 2.25390625 C8.24912822 5.90873962 8.39255033 7.43462775 7.5 11.69140625 C4.84405249 15.37074637 1.71543474 18.50022064 -1.5 21.69140625 C-2.32371094 22.53960937 -3.14742187 23.3878125 -3.99609375 24.26171875 C-12.10007036 32.53868665 -12.10007036 32.53868665 -16.9375 33.06640625 C-20.5 32.69140625 -20.5 32.69140625 -22.9375 31.19140625 C-24.66600232 28.42580254 -25.215702 26.30977411 -25.14477539 23.04492188 C-23.66894446 17.6579434 -18.89815649 13.95816421 -15 10.19140625 C-14.113125 9.27359375 -13.22625 8.35578125 -12.3125 7.41015625 C-4.92233489 0.10693425 -4.92233489 0.10693425 0 0 Z " fill="#F0F3FB" transform="translate(90.5,368.30859375)"/>
<path d="M0 0 C2.875 1.5625 2.875 1.5625 5 4 C5.75 7.25 5.75 7.25 5 11 C3.0676545 14.05674166 0.54442261 16.44726229 -2 19 C-3.02892888 20.1301907 -4.05474348 21.26322125 -5.078125 22.3984375 C-6.19637367 23.60039572 -7.31617502 24.80091121 -8.4375 26 C-9.22483521 26.88292725 -9.22483521 26.88292725 -10.02807617 27.78369141 C-12.9742842 30.84232944 -14.90910832 32.37841864 -19.25390625 32.47265625 C-23 32 -23 32 -25.5 30.4375 C-27.68071663 26.89383548 -27.75331723 25.10900306 -27 21 C-25.04274503 17.96110413 -22.55951912 15.53756785 -20 13 C-19.06266902 12.0401677 -18.12653747 11.07916308 -17.19140625 10.1171875 C-6.50777393 -0.78093287 -6.50777393 -0.78093287 0 0 Z " fill="#F0F3FB" transform="translate(138,414)"/>
<path d="M0 0 C2.96328619 2.05150582 3.81472499 3.25889995 4.6875 6.75 C3.62477357 11.77379767 0.53076912 14.41288882 -3 18 C-4.24523437 19.37091797 -4.24523437 19.37091797 -5.515625 20.76953125 C-6.37671875 21.69121094 -7.2378125 22.61289062 -8.125 23.5625 C-8.93195313 24.43003906 -9.73890625 25.29757812 -10.5703125 26.19140625 C-13 28 -13 28 -15.47265625 27.96875 C-18.30958586 26.8813334 -20.73802586 25.55083713 -23.3125 23.9375 C-24.19550781 23.38964844 -25.07851562 22.84179688 -25.98828125 22.27734375 C-26.65214844 21.85582031 -27.31601563 21.43429687 -28 21 C-26.54990314 17.66878456 -24.72522324 15.47943438 -22.15625 12.92578125 C-21.40472656 12.17619141 -20.65320313 11.42660156 -19.87890625 10.65429688 C-19.09386719 9.88150391 -18.30882813 9.10871094 -17.5 8.3125 C-16.71496094 7.52810547 -15.92992188 6.74371094 -15.12109375 5.93554688 C-7.4553505 -1.67102684 -7.4553505 -1.67102684 0 0 Z " fill="#F0F6FD" transform="translate(100,454)"/>
<path d="M0 0 C2.5 2.1875 2.5 2.1875 4 5 C4.28428724 9.26430861 2.77880748 11.55408876 0.125 14.6875 C-1.23579652 16.13845282 -2.61290226 17.57417003 -4 19 C-4.9235307 19.98534577 -5.84668659 20.97104293 -6.76953125 21.95703125 C-7.74065143 22.97282491 -8.71330402 23.98715581 -9.6875 25 C-10.59886719 25.94875 -11.51023437 26.8975 -12.44921875 27.875 C-15 30 -15 30 -19 30 C-20.73828125 27.98828125 -20.73828125 27.98828125 -22.3125 25.3125 C-22.84488281 24.44238281 -23.37726562 23.57226562 -23.92578125 22.67578125 C-25.21021733 19.47636775 -24.98323232 18.26017506 -24 15 C-22.54125977 13.07128906 -22.54125977 13.07128906 -20.69140625 11.265625 C-20.02689453 10.60949219 -19.36238281 9.95335937 -18.67773438 9.27734375 C-17.97970703 8.60832031 -17.28167969 7.93929688 -16.5625 7.25 C-15.86833984 6.56550781 -15.17417969 5.88101562 -14.45898438 5.17578125 C-7.35064137 -1.77429274 -7.35064137 -1.77429274 0 0 Z " fill="#F0EDF7" transform="translate(55,409)"/>
<path d="M0 0 C4.74801651 1.96113374 7.89437247 6.8428936 10.95174479 10.80615401 C7.48674479 14.27115401 7.48674479 14.27115401 3.95174479 17.80615401 C1.03612839 14.26576267 -1.54953338 10.64347681 -4.04825521 6.80615401 C-6.93011975 8.11279077 -8.99448685 9.50303614 -11.22663426 11.73843741 C-12.13729661 12.64312662 -12.13729661 12.64312662 -13.06635618 13.56609237 C-13.72394792 14.2295098 -14.38153966 14.89292722 -15.05905843 15.5764482 C-15.76484713 16.28052806 -16.47063584 16.98460791 -17.19781208 17.71002352 C-19.56712977 20.0760408 -21.9292175 22.44914709 -24.29141927 24.82226729 C-25.98613949 26.51755151 -27.68129994 28.21239575 -29.37686849 29.9068315 C-33.50561443 34.03506221 -37.62973888 38.16786805 -41.75186732 42.30270566 C-46.5486176 47.11375014 -51.35101374 51.91914216 -56.15377256 56.72418724 C-64.71854597 65.29333776 -73.27884363 73.86694497 -81.83634114 82.44336104 C-90.14910158 90.77447985 -98.46396025 99.10349524 -106.78165364 107.42968917 C-107.29436599 107.94292696 -107.80707833 108.45616475 -108.33532742 108.98495521 C-110.90747071 111.55970858 -113.47965536 114.13442064 -116.05186057 116.70911217 C-137.39040696 138.06839157 -158.72162098 159.43498025 -180.04825521 180.80615401 C-180.04825521 177.27608705 -179.66358872 177.04533283 -177.27953649 174.65432525 C-176.66195887 174.02769099 -176.04438125 173.40105673 -175.40808916 172.75543356 C-174.71822884 172.07090117 -174.02836853 171.38636878 -173.31760335 170.68109298 C-172.59355329 169.95095182 -171.86950324 169.22081066 -171.12351227 168.46854401 C-168.68012253 166.00842135 -166.22604794 163.5592403 -163.77188802 161.10986495 C-162.02409401 159.35473667 -160.27692625 157.59898458 -158.53034139 155.84265304 C-154.26774712 151.56008612 -149.99802773 147.2847464 -145.72454956 143.0130491 C-142.25259244 139.5423978 -138.78319542 136.06920763 -135.31561208 132.59418654 C-134.31809898 131.59457434 -133.32058513 130.59496288 -132.32307053 129.59535217 C-131.57842171 128.84913807 -131.57842171 128.84913807 -130.81872949 128.08784893 C-121.42284576 118.67304972 -112.01699005 109.26826147 -102.60823712 99.86632589 C-93.99311314 91.25677968 -85.39127005 82.63410122 -76.79550377 74.00523207 C-67.97728892 65.1533207 -59.14986843 56.31068626 -50.3124752 47.47792053 C-45.34786617 42.51556011 -40.38710229 37.54949194 -35.4360497 32.57360244 C-30.78226899 27.89667604 -26.11571172 23.23278493 -21.44014287 18.57762313 C-19.72168233 16.86259176 -18.00752077 15.14324094 -16.29790044 13.41939712 C-13.97219431 11.07567525 -11.6317957 8.7477201 -9.28684163 6.42328048 C-8.6059042 5.7298252 -7.92496677 5.03636992 -7.22339487 4.32190084 C-6.59538626 3.70569758 -5.96737766 3.08949431 -5.32033849 2.45461822 C-4.78113562 1.91514296 -4.24193275 1.37566771 -3.6863904 0.81984472 C-2.04825521 -0.19384599 -2.04825521 -0.19384599 0 0 Z " fill="#EEEFF9" transform="translate(229.04825520515442,273.19384598731995)"/>
<path d="M0 0 C1.89453125 2.484375 1.89453125 2.484375 3.8125 5.75 C4.78123047 7.35101563 4.78123047 7.35101563 5.76953125 8.984375 C7 12 7 12 6.27612305 13.97485352 C4.95488621 16.07159344 3.56981534 17.67347135 1.8125 19.41796875 C1.19632813 20.03220703 0.58015625 20.64644531 -0.0546875 21.27929688 C-1.01761719 22.22385742 -1.01761719 22.22385742 -2 23.1875 C-2.64195312 23.82880859 -3.28390625 24.47011719 -3.9453125 25.13085938 C-9.73098425 30.86206351 -9.73098425 30.86206351 -13.875 31.3125 C-17 31 -17 31 -19.3125 29.4375 C-21.67000607 26.03221345 -22.20847541 24.16950824 -22 20 C-20.13175417 16.88849705 -17.58016887 14.52932811 -15 12 C-13.9857448 10.94383622 -12.9742011 9.88506431 -11.96484375 8.82421875 C-10.8945623 7.71485811 -9.82294503 6.60678469 -8.75 5.5 C-8.23091064 4.95899658 -7.71182129 4.41799316 -7.17700195 3.8605957 C-3.34623219 0 -3.34623219 0 0 0 Z " fill="#DCE6F9" transform="translate(251,297)"/>
<path d="M0 0 C3.42699295 1.3428421 6.60919538 2.80820036 9.8125 4.625 C10.99779297 5.29402344 10.99779297 5.29402344 12.20703125 5.9765625 C12.79871094 6.31429688 13.39039063 6.65203125 14 7 C13.42041482 10.59512251 12.1001 12.27509885 9.54296875 14.8203125 C8.84236328 15.52027344 8.14175781 16.22023438 7.41992188 16.94140625 C6.68322266 17.66199219 5.94652344 18.38257813 5.1875 19.125 C4.09985352 20.21748047 4.09985352 20.21748047 2.99023438 21.33203125 C-3.24926875 27.50873974 -3.24926875 27.50873974 -7 29 C-10.86052755 28.91957234 -12.50927221 28.42781397 -15.4375 25.875 C-17.05605309 22.89686232 -17.3524497 21.30736361 -16.78198242 17.98828125 C-15.07734777 13.65404941 -11.27647112 10.67906314 -7.9375 7.5625 C-7.17888672 6.83095703 -6.42027344 6.09941406 -5.63867188 5.34570312 C-3.7719731 3.54944581 -1.89275498 1.7687129 0 0 Z " fill="#F0F1FA" transform="translate(201,254)"/>
<path d="M0 0 C2.5 1.5 2.5 1.5 4 4 C4.791013 8.02098277 4.62153384 10.96411027 2.5 14.5 C-1.03588973 16.62153384 -3.97901723 16.791013 -8 16 C-10.5 14.5 -10.5 14.5 -12 12 C-12.791013 7.97901723 -12.62153384 5.03588973 -10.5 1.5 C-6.96411027 -0.62153384 -4.02098277 -0.791013 0 0 Z " fill="#FFD73E" transform="translate(436,440)"/>
<path d="M0 0 C2.5 1.5 2.5 1.5 4 4 C4.791013 8.02098277 4.62153384 10.96411027 2.5 14.5 C-1.03588973 16.62153384 -3.97901723 16.791013 -8 16 C-10.5 14.5 -10.5 14.5 -12 12 C-12.791013 7.97901723 -12.62153384 5.03588973 -10.5 1.5 C-6.96411027 -0.62153384 -4.02098277 -0.791013 0 0 Z " fill="#FFD73E" transform="translate(244,40)"/>
<path d="M0 0 C0.66 0 1.32 0 2 0 C6.95940959 12.24354244 6.95940959 12.24354244 6 18 C3.79803976 20.62541413 2.38026421 20.9445448 -1 21.4375 C-4 21 -4 21 -6.3125 19.4375 C-8.67000607 16.03221345 -9.20847541 14.16950824 -9 10 C-6.99397964 6.98551832 -4.59991465 4.50767821 -2 2 C-1.34 1.34 -0.68 0.68 0 0 Z " fill="#F0F2FB" transform="translate(238,307)"/>
<path d="M0 0 C3.61497739 1.47158371 5.40591511 3.41462331 7.75 6.5 C8.36359375 7.2940625 8.9771875 8.088125 9.609375 8.90625 C11 11 11 11 11 13 C9.35546875 14.65625 9.35546875 14.65625 7.1875 16.5 C6.47980469 17.1084375 5.77210938 17.716875 5.04296875 18.34375 C3 20 3 20 0 22 C-1.03513247 19.9237343 -2.05266211 17.83868521 -3.0625 15.75 C-3.63097656 14.58984375 -4.19945312 13.4296875 -4.78515625 12.234375 C-6 9 -6 9 -5.84375 6.75 C-4.48816431 3.93841486 -2.26796465 2.09350583 0 0 Z " fill="#D71B4A" transform="translate(239,284)"/>
<path d="M0 0 C4.72003489 2.43153313 7.87527465 6.93091158 11.0625 11.0625 C8.7525 13.3725 6.4425 15.6825 4.0625 18.0625 C-3.9375 8.34821429 -3.9375 8.34821429 -3.9375 5.0625 C-4.5975 4.7325 -5.2575 4.4025 -5.9375 4.0625 C-2.56061558 0.0826005 -2.56061558 0.0826005 0 0 Z " fill="#DCE7FA" transform="translate(228.9375,272.9375)"/>
<path d="M0 0 C0.66 0.33 1.32 0.66 2 1 C-3.28 6.28 -8.56 11.56 -14 17 C-10.83433427 19.11044382 -8.48802585 19.75552077 -4.8125 20.625 C-3.72582031 20.88539063 -2.63914062 21.14578125 -1.51953125 21.4140625 C-0.68808594 21.60742188 0.14335938 21.80078125 1 22 C-0.65 23.98 -2.3 25.96 -4 28 C-8.06225548 27.42176904 -10.84762346 26.10882263 -14.3125 23.9375 C-15.19550781 23.38964844 -16.07851562 22.84179688 -16.98828125 22.27734375 C-17.65214844 21.85582031 -18.31601563 21.43429687 -19 21 C-17.54254576 17.63664406 -15.68882146 15.45465995 -13.0859375 12.890625 C-12.32539062 12.13652344 -11.56484375 11.38242187 -10.78125 10.60546875 C-9.9871875 9.82816406 -9.193125 9.05085938 -8.375 8.25 C-7.57320312 7.45722656 -6.77140625 6.66445313 -5.9453125 5.84765625 C-3.96797154 3.89385507 -1.98611091 1.94487897 0 0 Z " fill="#E0D8EB" transform="translate(91,454)"/>
<path d="M0 0 C3.2826932 1.49076434 5.93077441 3.38620321 8.75 5.625 C9.94882813 6.57246094 9.94882813 6.57246094 11.171875 7.5390625 C11.77515625 8.02117187 12.3784375 8.50328125 13 9 C11.63016497 12.16115776 11.0109362 12.9927092 8 15 C6.68227638 13.40012144 5.37098863 11.79494034 4.0625 10.1875 C3.33160156 9.29417969 2.60070312 8.40085937 1.84765625 7.48046875 C0 5 0 5 -1 2 C-0.67 1.34 -0.34 0.68 0 0 Z " fill="#D81F4B" transform="translate(215,262)"/>
<path d="M0 0 C4.47238653 1.41807378 8.71146306 3.11304374 13 5 C12.01 6.485 12.01 6.485 11 8 C6.99698968 6.23867546 3.3971023 3.73867517 0 1 C0 0.67 0 0.34 0 0 Z " fill="#DB1646" transform="translate(61,466)"/>
</svg>
